<?xml version="1.0" standalone="no"?><!DOCTYPE svg PUBLIC "-//W3C//DTD SVG 1.1//EN" "http://www.w3.org/Graphics/SVG/1.1/DTD/svg11.dtd"><svg t="1583146403533" class="icon" viewBox="0 0 1024 1024" version="1.1" xmlns="http://www.w3.org/2000/svg" p-id="2805" xmlns:xlink="http://www.w3.org/1999/xlink" width="200" height="200"><defs><style type="text/css"></style></defs><path d="M88.275862 61.793103A26.482759 26.482759 0 0 0 61.793103 88.275862v317.793104A26.482759 26.482759 0 0 0 88.275862 432.551724h317.793104a26.482759 26.482759 0 0 0 26.482758-26.482758V88.275862A26.482759 26.482759 0 0 0 406.068966 61.793103H88.275862z m0-52.965517h317.793104A79.448276 79.448276 0 0 1 485.517241 88.275862v317.793104a79.448276 79.448276 0 0 1-79.448275 79.448275H88.275862A79.448276 79.448276 0 0 1 8.827586 406.068966V88.275862A79.448276 79.448276 0 0 1 88.275862 8.827586zM88.275862 591.448276A26.482759 26.482759 0 0 0 61.793103 617.931034v317.793104A26.482759 26.482759 0 0 0 88.275862 962.206897h317.793104a26.482759 26.482759 0 0 0 26.482758-26.482759V617.931034a26.482759 26.482759 0 0 0-26.482758-26.482758H88.275862z m0-52.965517h317.793104a79.448276 79.448276 0 0 1 79.448275 79.448275v317.793104a79.448276 79.448276 0 0 1-79.448275 79.448276H88.275862A79.448276 79.448276 0 0 1 8.827586 935.724138V617.931034A79.448276 79.448276 0 0 1 88.275862 538.482759zM617.931034 61.793103A26.482759 26.482759 0 0 0 591.448276 88.275862v317.793104a26.482759 26.482759 0 0 0 26.482758 26.482758h317.793104a26.482759 26.482759 0 0 0 26.482759-26.482758V88.275862A26.482759 26.482759 0 0 0 935.724138 61.793103H617.931034z m0-52.965517h317.793104A79.448276 79.448276 0 0 1 1015.172414 88.275862v317.793104a79.448276 79.448276 0 0 1-79.448276 79.448275H617.931034a79.448276 79.448276 0 0 1-79.448275-79.448275V88.275862A79.448276 79.448276 0 0 1 617.931034 8.827586z" fill="#0069F6" p-id="2806"></path><path d="M776.827586 1015.172414c-131.636966 0-238.344828-106.707862-238.344827-238.344828S645.190621 538.482759 776.827586 538.482759 1015.172414 645.190621 1015.172414 776.827586 908.464552 1015.172414 776.827586 1015.172414z m0-52.965517c102.382345 0 185.37931-82.996966 185.379311-185.379311S879.209931 591.448276 776.827586 591.448276 591.448276 674.445241 591.448276 776.827586 674.445241 962.206897 776.827586 962.206897z" fill="#5ED7BC" p-id="2807"></path></svg>