<?xml version="1.0" standalone="no"?><!DOCTYPE svg PUBLIC "-//W3C//DTD SVG 1.1//EN" "http://www.w3.org/Graphics/SVG/1.1/DTD/svg11.dtd"><svg t="1583146718212" class="icon" viewBox="0 0 1024 1024" version="1.1" xmlns="http://www.w3.org/2000/svg" p-id="6687" xmlns:xlink="http://www.w3.org/1999/xlink" width="200" height="200"><defs><style type="text/css"></style></defs><path d="M768 768.213333c0 52.864-29.930667 76.330667-98.816 76.330667-56.874667 0-104.768-20.544-164.672-20.544-59.861333 0-95.808 29.333333-161.685333 29.333333-62.848 0-86.826667-44.053333-86.826667-76.330666 0-64.597333 47.914667-73.386667 101.781333-129.216C411.712 592.042667 441.642667 533.333333 498.538667 533.333333c65.877333 0 86.848 70.464 134.741333 126.250667C675.178667 712.405333 768 706.517333 768 768.213333zM640.341333 448C711.210667 448 746.666667 358.698667 746.666667 275.584S696.448 149.333333 663.957333 149.333333C593.066667 149.333333 554.666667 226.304 554.666667 278.656c0 49.258667 20.672 169.344 85.674666 169.344zM402.816 426.666667C474.389333 426.666667 490.666667 340.181333 490.666667 259.669333 490.666667 200 448.362667 149.333333 406.037333 149.333333 331.2 149.333333 298.666667 220.885333 298.666667 280.533333c0 47.744 42.304 146.133333 104.149333 146.133334zM320 512.512C320 458.901333 272.789333 405.333333 228.736 405.333333 184.661333 405.333333 128 470.805333 128 542.250667 128 589.888 165.781333 661.333333 225.557333 661.333333 282.24 661.333333 320 586.901333 320 512.512zM847.637333 406.677333c-41.344-8.917333-85.696 26.794667-121.152 98.176-44.309333 80.384-17.728 142.826667 32.490667 154.752 50.24 11.925333 100.458667-38.698667 127.04-113.066666 23.658667-56.554667 2.986667-130.965333-38.378667-139.861334z" fill="#8D6E63" p-id="6688"></path><path d="M388.458667 677.461333a876.565333 876.565333 0 0 0 39.594666-44.650666c30.656-36.266667 49.045333-56.810667 70.464-56.810667 22.122667 0 35.562667 16.789333 63.210667 57.984 71.573333 122.688 182.250667 88.682667 206.250667 134.229333 0-61.696-92.821333-55.808-134.72-108.629333C585.365333 603.797333 564.416 533.333333 498.538667 533.333333c-56.896 0-86.826667 58.709333-140.736 114.453334C303.936 703.594667 256 712.405333 256 777.002667c0 0.917333 0.234667 1.92 0.256 2.88 5.632-49.429333 92.16-62.954667 132.202667-102.421334zM663.701333 192c27.328 1.984 78.442667 69.546667 79.530667 128.085333 2.261333-14.677333 3.434667-29.674667 3.434667-44.501333C746.666667 192.448 696.448 149.333333 663.957333 149.333333 593.066667 149.333333 554.666667 226.304 554.666667 278.656c0 11.968 1.258667 28.138667 4.010666 45.738667l-0.021333-0.256C558.677333 282.005333 608 192.661333 663.701333 192zM406.037333 192c14.634667 0 83.477333 39.445333 82.581334 113.664 1.450667-15.125333 2.048-30.656 2.048-45.994667C490.666667 200 448.362667 149.333333 406.037333 149.333333 331.2 149.333333 298.666667 220.885333 298.666667 280.533333c0 12.138667 2.773333 27.584 7.872 43.84-0.256-1.450667-0.533333-2.901333-0.533334-4.373333 0-30.634667 48.853333-128 100.032-128zM228.736 448c60.586667 0 90.005333 87.253333 90.005333 87.253333 0.768-7.552 1.258667-15.125333 1.258667-22.741333C320 458.901333 272.789333 405.333333 228.736 405.333333 184.661333 405.333333 128 470.805333 128 542.250667c0 12.202667 2.517333 25.984 7.210667 39.701333a20.373333 20.373333 0 0 1-0.533334-4.16c0-51.434667 58.346667-129.792 94.058667-129.792zM847.637333 406.677333a59.946667 59.946667 0 0 0-12.586666-1.344c-37.632 0-76.672 35.328-108.544 99.498667-16.789333 30.464-23.381333 58.282667-22.378667 81.834667 10.176-36.565333 81.066667-139.84 130.922667-138.666667 1.216 0.042667 2.410667 0.128 3.114666 0.213333 35.605333 9.216 36.842667 106.496 24.384 147.925334 9.002667-14.784 17.024-31.402667 23.530667-49.6 23.594667-56.554667 2.922667-130.965333-38.442667-139.861334z" fill="#6D4C41" p-id="6689"></path></svg>