<?xml version="1.0" standalone="no"?><!DOCTYPE svg PUBLIC "-//W3C//DTD SVG 1.1//EN" "http://www.w3.org/Graphics/SVG/1.1/DTD/svg11.dtd"><svg t="1583127365053" class="icon" viewBox="0 0 1024 1024" version="1.1" xmlns="http://www.w3.org/2000/svg" p-id="2446" xmlns:xlink="http://www.w3.org/1999/xlink" width="200" height="200"><defs><style type="text/css"></style></defs><path d="M34.133333 870.4c-17.066667-17.066667-17.066667-42.666667 0-59.733333l194.133334-194.133334-134.4-134.4c-17.066667-17.066667-17.066667-42.666667 0-59.733333 17.066667-17.066667 42.666667-17.066667 59.733333 0l59.733333 59.733333 448-448c10.666667-10.666667 25.6-14.933333 38.4-10.666666l224 44.8c17.066667 4.266667 29.866667 17.066667 34.133334 34.133333L1002.666667 324.266667c2.133333 14.933333-2.133333 27.733333-10.666667 38.4l-448 448 59.733333 59.733333c17.066667 17.066667 17.066667 42.666667 0 59.733333-8.533333 8.533333-19.2 12.8-29.866666 12.8-10.666667 0-21.333333-4.266667-29.866667-12.8l-134.4-134.4-196.266667 194.133334c-8.533333 8.533333-19.2 12.8-29.866666 12.8s-21.333333-4.266667-29.866667-12.8l-119.466667-119.466667z m253.866667-194.133333l-164.266667 164.266666 59.733334 59.733334 164.266666-164.266667-59.733333-59.733333zM706.133333 110.933333L273.066667 541.866667l209.066666 209.066666L913.066667 320l-34.133334-172.8-172.8-36.266667z" fill="#2F3CF4" p-id="2447"></path><path d="M795.733333 288c17.066667-17.066667 17.066667-42.666667 0-59.733333s-42.666667-17.066667-59.733333 0L422.4 541.866667c-17.066667 17.066667-17.066667 42.666667 0 59.733333 8.533333 8.533333 19.2 12.8 29.866667 12.8 10.666667 0 21.333333-4.266667 29.866666-12.8l313.6-313.6z" fill="#2F3CF4" p-id="2448"></path></svg>