<?xml version="1.0" standalone="no"?><!DOCTYPE svg PUBLIC "-//W3C//DTD SVG 1.1//EN" "http://www.w3.org/Graphics/SVG/1.1/DTD/svg11.dtd"><svg t="1583127510799" class="icon" viewBox="0 0 1024 1024" version="1.1" xmlns="http://www.w3.org/2000/svg" p-id="2446" xmlns:xlink="http://www.w3.org/1999/xlink" width="200" height="200"><defs><style type="text/css"></style></defs><path d="M812.278 657.804c0-5.688-2.218-11.124-6.25-15.124L227.348 64.018a21.02 21.02 0 0 0-12.062-6.032l-105.592-15.094a21.306 21.306 0 0 0-18.124 6.032 21.44 21.44 0 0 0-6.032 18.094l15.094 105.592a21.4 21.4 0 0 0 6.032 12.062l578.708 578.692c8.312 8.312 21.844 8.312 30.156 0l90.5-90.498c4.03-4 6.25-9.438 6.25-15.062z" fill="#AAB2BC" p-id="2447"></path><path d="M806.028 642.68L227.348 64.018a21.02 21.02 0 0 0-12.062-6.032l-105.592-15.094a21.306 21.306 0 0 0-18.124 6.032 21.44 21.44 0 0 0-6.032 18.094l15.094 105.592a21.4 21.4 0 0 0 6.032 12.062l578.708 578.692c8.312 8.312 21.844 8.312 30.156 0l90.5-90.498c4.032-4 6.25-9.438 6.25-15.06 0-5.688-2.22-11.126-6.25-15.126z m-105.594 105.62L121.756 169.61l-15.094-105.592 105.592 15.062 578.71 578.724-90.53 90.496z" fill="#FFFFFF" opacity=".2" p-id="2448"></path><path d="M730.622 718.116L262.254 249.764c-8.312-8.344-8.312-21.844 0-30.156a21.332 21.332 0 0 1 30.188 0l468.336 468.32c8.344 8.376 8.344 21.876 0 30.188-8.314 8.312-21.844 8.312-30.156 0z" fill="#080808" opacity=".1" p-id="2449"></path><path d="M993.304 884.05c0-5.624-2.25-11.062-6.25-15.062l-158.372-158.436c-4-4-9.438-6.25-15.094-6.25s-11.094 2.25-15.094 6.25l-45.25 45.31c-8.344 8.312-8.344 21.812 0 30.124l158.402 158.436c8.312 8.312 21.812 8.312 30.156 0l45.25-45.25a21.358 21.358 0 0 0 6.252-15.122z" fill="#ED5564" p-id="2450"></path><path d="M1002.148 853.864c-29.124-29.062-76.468-29.062-105.594 0-29.124 29.124-29.124 76.498 0 105.622 29.124 29.124 76.468 29.124 105.594 0 29.126-29.124 29.126-76.498 0-105.622z" fill="#FFCE54" p-id="2451"></path><path d="M798.496 831.238l30.188 30.188 75.402-75.438-30.156-30.124z" fill="#DA4453" p-id="2452"></path><path d="M917.336 184.672a21.244 21.244 0 0 0 6.062-12.062l15.062-105.592c0.968-6.656-1.282-13.344-6.032-18.094s-11.438-7-18.094-6.032l-105.59 15.094a21.008 21.008 0 0 0-12.062 6.032L217.974 642.68a21.34 21.34 0 0 0 0 30.184l90.53 90.498c8.312 8.312 21.812 8.312 30.156 0L917.336 184.672z" fill="#CCD1D9" p-id="2453"></path><path d="M932.43 48.924a21.248 21.248 0 0 0-18.094-6.032l-105.59 15.094a21.008 21.008 0 0 0-12.062 6.032L217.974 642.68a21.34 21.34 0 0 0 0 30.184l90.53 90.498c8.312 8.312 21.812 8.312 30.156 0L917.336 184.672a21.244 21.244 0 0 0 6.062-12.062l15.062-105.592a21.24 21.24 0 0 0-6.03-18.094z m-15.094 15.094l-15.062 105.592L323.566 748.3l-90.498-90.496L811.746 79.08l105.59-15.062z" fill="#FFFFFF" opacity=".2" p-id="2454"></path><path d="M263.222 718.116c-8.312-8.312-8.312-21.812 0-30.188l468.368-468.32c8.344-8.344 21.844-8.344 30.156 0 8.344 8.312 8.344 21.812 0 30.156L293.41 718.116c-8.344 8.312-21.844 8.312-30.188 0z" fill="#AAB2BC" p-id="2455"></path><path d="M270.786 755.864l-45.25-45.31c-4-4-9.438-6.25-15.094-6.25s-11.094 2.25-15.094 6.25l-158.404 158.436c-4 4-6.25 9.438-6.25 15.062 0 5.688 2.25 11.062 6.25 15.124l45.282 45.25c8.312 8.312 21.812 8.312 30.156 0l158.404-158.436c8.312-8.314 8.312-21.814 0-30.126z" fill="#ED5564" p-id="2456"></path><path d="M127.476 853.864c-29.124-29.062-76.5-29.062-105.592 0C7.76 867.988 0.008 886.74 0.008 906.674c0 19.938 7.75 38.688 21.876 52.81 29.092 29.124 76.466 29.124 105.592 0 29.092-29.122 29.092-76.496 0-105.62z" fill="#FFCE54" p-id="2457"></path><path d="M195.336 861.426L119.9 785.99 150.088 755.8l75.436 75.436z" fill="#DA4453" p-id="2458"></path><path d="M308.502 853.864l-181.028-180.998c-6.5-6.5-8.124-16.436-4-24.624l30.156-60.376c3.062-6.124 8.906-10.376 15.688-11.5 6.75-1.062 13.656 1.124 18.5 6l211.184 211.184c4.844 4.812 7.062 11.75 5.968 18.5s-5.376 12.624-11.5 15.688l-60.342 30.124a21.286 21.286 0 0 1-24.626-3.998zM896.554 672.866a21.35 21.35 0 0 0 4-24.624l-30.188-60.376a21.356 21.356 0 0 0-15.652-11.5c-6.782-1.062-13.656 1.124-18.5 6L625.032 793.55c-4.876 4.812-7.094 11.75-6 18.5a21.516 21.516 0 0 0 6 11.688 22.952 22.952 0 0 0 5.532 4l60.34 30.124a21.294 21.294 0 0 0 24.624-4l181.026-180.996z" fill="#FFCE54" p-id="2459"></path></svg>